<svg width="1320" height="860" viewBox="0 0 1320 860" fill="none" xmlns="http://www.w3.org/2000/svg">
  <rect width="1320" height="860" rx="28" fill="#E7EEF8"/>
  <rect x="1" y="1" width="1318" height="858" rx="27" fill="#F7FAFE" stroke="#D5E0EE"/>
  <rect x="0" y="0" width="1320" height="48" rx="28" fill="#F4F8FD"/>
  <circle cx="26" cy="24" r="7" fill="#FF5F57"/>
  <circle cx="46" cy="24" r="7" fill="#FEBC2E"/>
  <circle cx="66" cy="24" r="7" fill="#28C840"/>
  <text x="88" y="29" fill="#1E293B" font-family="Arial, 'PingFang SC', sans-serif" font-size="16" font-weight="700">AstraShell · Local Panel</text>

  <rect x="22" y="74" width="1276" height="764" rx="24" fill="#F8FBFF" stroke="#D8E3F0"/>
  <text x="48" y="118" fill="#0F172A" font-family="Arial, 'PingFang SC', sans-serif" font-size="24" font-weight="700">本地终端</text>
  <text x="48" y="148" fill="#64748B" font-family="Arial, 'PingFang SC', sans-serif" font-size="14">科技风终端皮肤，支持中文显示、代码片段分类和快速执行</text>

  <rect x="1060" y="94" width="110" height="38" rx="14" fill="#FFFFFF" stroke="#D5E0EE"/>
  <text x="1088" y="118" fill="#334155" font-family="Arial, 'PingFang SC', sans-serif" font-size="13" font-weight="700">+ 新标签</text>
  <rect x="1182" y="94" width="88" height="38" rx="14" fill="#E2E8F0"/>
  <text x="1204" y="118" fill="#334155" font-family="Arial, 'PingFang SC', sans-serif" font-size="13" font-weight="700">关闭当前</text>

  <rect x="48" y="176" width="300" height="44" rx="14" fill="#FFFFFF" stroke="#D5E0EE"/>
  <text x="66" y="203" fill="#334155" font-family="Arial, 'PingFang SC', sans-serif" font-size="13">终端类型：自动</text>
  <rect x="366" y="176" width="330" height="44" rx="14" fill="#F8FBFF" stroke="#D5E0EE"/>
  <text x="384" y="203" fill="#334155" font-family="Arial, 'PingFang SC', sans-serif" font-size="13">管理员模式（触发 UAC 后桥接到本体）</text>

  <rect x="48" y="238" width="1222" height="42" rx="14" fill="#F8FAFC" stroke="#CBD5E1"/>
  <text x="66" y="264" fill="#334155" font-family="Arial, 'PingFang SC', sans-serif" font-size="13">已选中：npm run build</text>

  <rect x="48" y="304" width="1222" height="206" rx="20" fill="#F6FAFF" stroke="#C9D6E5"/>
  <text x="72" y="338" fill="#0F172A" font-family="Arial, 'PingFang SC', sans-serif" font-size="16" font-weight="700">已开连接</text>
  <text x="152" y="338" fill="#64748B" font-family="Arial, 'PingFang SC', sans-serif" font-size="12">展示最近命令和处理状态</text>

  <rect x="72" y="362" width="280" height="120" rx="18" fill="#FFFFFF" stroke="#93C5FD"/>
  <rect x="72" y="362" width="280" height="120" rx="18" fill="url(#selectedCard)" fill-opacity="0.9"/>
  <rect x="92" y="382" width="70" height="24" rx="12" fill="#DBEAFE"/>
  <text x="112" y="398" fill="#1D4ED8" font-family="Arial, 'PingFang SC', sans-serif" font-size="11" font-weight="700">处理中</text>
  <text x="92" y="430" fill="#0F172A" font-family="Arial, 'PingFang SC', sans-serif" font-size="16" font-weight="700">npm run build</text>
  <text x="92" y="456" fill="#64748B" font-family="Arial, 'PingFang SC', sans-serif" font-size="12">/Users/jonny/Desktop/AstraShell/app</text>
  <text x="324" y="388" fill="#60A5FA" font-family="Arial, 'PingFang SC', sans-serif" font-size="18">×</text>

  <rect x="372" y="362" width="280" height="120" rx="18" fill="#FFFFFF" stroke="#D6DEEA"/>
  <rect x="392" y="382" width="70" height="24" rx="12" fill="#DCFCE7"/>
  <text x="412" y="398" fill="#166534" font-family="Arial, 'PingFang SC', sans-serif" font-size="11" font-weight="700">已完成</text>
  <text x="392" y="430" fill="#0F172A" font-family="Arial, 'PingFang SC', sans-serif" font-size="16" font-weight="700">docker ps</text>
  <text x="392" y="456" fill="#64748B" font-family="Arial, 'PingFang SC', sans-serif" font-size="12">~/server</text>
  <text x="624" y="388" fill="#94A3B8" font-family="Arial, 'PingFang SC', sans-serif" font-size="18">×</text>

  <rect x="672" y="362" width="280" height="120" rx="18" fill="#FFFFFF" stroke="#D6DEEA"/>
  <rect x="692" y="382" width="58" height="24" rx="12" fill="#F1F5F9"/>
  <text x="711" y="398" fill="#475569" font-family="Arial, 'PingFang SC', sans-serif" font-size="11" font-weight="700">等待</text>
  <text x="692" y="430" fill="#0F172A" font-family="Arial, 'PingFang SC', sans-serif" font-size="16" font-weight="700">等待命令</text>
  <text x="692" y="456" fill="#64748B" font-family="Arial, 'PingFang SC', sans-serif" font-size="12">~/workspace</text>
  <text x="924" y="388" fill="#94A3B8" font-family="Arial, 'PingFang SC', sans-serif" font-size="18">×</text>

  <rect x="972" y="362" width="280" height="120" rx="18" fill="#FFFFFF" stroke="#D6DEEA"/>
  <rect x="992" y="382" width="58" height="24" rx="12" fill="#FEE2E2"/>
  <text x="1011" y="398" fill="#B91C1C" font-family="Arial, 'PingFang SC', sans-serif" font-size="11" font-weight="700">异常</text>
  <text x="992" y="430" fill="#0F172A" font-family="Arial, 'PingFang SC', sans-serif" font-size="16" font-weight="700">pnpm test</text>
  <text x="992" y="456" fill="#64748B" font-family="Arial, 'PingFang SC', sans-serif" font-size="12">~/repo/alpha</text>
  <text x="1224" y="388" fill="#94A3B8" font-family="Arial, 'PingFang SC', sans-serif" font-size="18">×</text>

  <rect x="48" y="534" width="1222" height="272" rx="20" fill="#EDF4FF" stroke="#C9D6E5"/>
  <text x="72" y="568" fill="#0F172A" font-family="Arial, 'PingFang SC', sans-serif" font-size="16" font-weight="700">代码片段快速执行</text>
  <text x="200" y="568" fill="#64748B" font-family="Arial, 'PingFang SC', sans-serif" font-size="12">支持分类筛选，点击后直接发送到当前本地终端</text>

  <rect x="72" y="590" width="150" height="38" rx="12" fill="#FFFFFF" stroke="#D5E0EE"/>
  <text x="92" y="614" fill="#334155" font-family="Arial, 'PingFang SC', sans-serif" font-size="13">部署</text>
  <rect x="238" y="590" width="548" height="38" rx="12" fill="#FFFFFF" stroke="#D5E0EE"/>
  <text x="258" y="614" fill="#94A3B8" font-family="Arial, 'PingFang SC', sans-serif" font-size="13">搜索片段名称 / 说明 / 命令</text>
  <text x="818" y="614" fill="#64748B" font-family="Arial, 'PingFang SC', sans-serif" font-size="12">共 8 条</text>
  <rect x="1134" y="590" width="114" height="38" rx="12" fill="#FFFFFF" stroke="#D5E0EE"/>
  <text x="1164" y="614" fill="#334155" font-family="Arial, 'PingFang SC', sans-serif" font-size="13" font-weight="700">管理片段</text>

  <rect x="72" y="646" width="278" height="126" rx="16" fill="#F8FBFF" stroke="#D1DAE5"/>
  <text x="92" y="674" fill="#0F172A" font-family="Arial, 'PingFang SC', sans-serif" font-size="15" font-weight="700">部署 Docker</text>
  <rect x="248" y="658" width="74" height="24" rx="12" fill="#F3E8FF"/>
  <text x="272" y="674" fill="#7C3AED" font-family="Arial, 'PingFang SC', sans-serif" font-size="11" font-weight="700">部署</text>
  <text x="92" y="708" fill="#64748B" font-family="Arial, 'PingFang SC', sans-serif" font-size="12">安装 Docker CE、启动服务并加入当前用户组。</text>
  <text x="92" y="734" fill="#64748B" font-family="Arial, 'PingFang SC', sans-serif" font-size="12">命令数：11</text>
  <rect x="92" y="744" width="124" height="28" rx="10" fill="#F3F4F6"/>
  <text x="118" y="762" fill="#334155" font-family="Arial, 'PingFang SC', sans-serif" font-size="12" font-weight="700">执行到本地终端</text>

  <rect x="368" y="646" width="278" height="126" rx="16" fill="#F8FBFF" stroke="#D1DAE5"/>
  <text x="388" y="674" fill="#0F172A" font-family="Arial, 'PingFang SC', sans-serif" font-size="15" font-weight="700">重启 Nginx</text>
  <rect x="546" y="658" width="62" height="24" rx="12" fill="#E0F2FE"/>
  <text x="567" y="674" fill="#0369A1" font-family="Arial, 'PingFang SC', sans-serif" font-size="11" font-weight="700">巡检</text>
  <text x="388" y="708" fill="#64748B" font-family="Arial, 'PingFang SC', sans-serif" font-size="12">校验配置后重启服务，并返回状态摘要。</text>
  <text x="388" y="734" fill="#64748B" font-family="Arial, 'PingFang SC', sans-serif" font-size="12">命令数：3</text>
  <rect x="388" y="744" width="124" height="28" rx="10" fill="#F3F4F6"/>
  <text x="414" y="762" fill="#334155" font-family="Arial, 'PingFang SC', sans-serif" font-size="12" font-weight="700">执行到本地终端</text>

  <rect x="664" y="646" width="278" height="126" rx="16" fill="#F8FBFF" stroke="#D1DAE5"/>
  <text x="684" y="674" fill="#0F172A" font-family="Arial, 'PingFang SC', sans-serif" font-size="15" font-weight="700">打包桌面端</text>
  <rect x="842" y="658" width="74" height="24" rx="12" fill="#F3E8FF"/>
  <text x="866" y="674" fill="#7C3AED" font-family="Arial, 'PingFang SC', sans-serif" font-size="11" font-weight="700">部署</text>
  <text x="684" y="708" fill="#64748B" font-family="Arial, 'PingFang SC', sans-serif" font-size="12">执行 typecheck、test、build、dist 的本地发布流程。</text>
  <text x="684" y="734" fill="#64748B" font-family="Arial, 'PingFang SC', sans-serif" font-size="12">命令数：4</text>
  <rect x="684" y="744" width="124" height="28" rx="10" fill="#F3F4F6"/>
  <text x="710" y="762" fill="#334155" font-family="Arial, 'PingFang SC', sans-serif" font-size="12" font-weight="700">执行到本地终端</text>

  <rect x="960" y="646" width="278" height="126" rx="16" fill="#F8FBFF" stroke="#D1DAE5"/>
  <text x="980" y="674" fill="#0F172A" font-family="Arial, 'PingFang SC', sans-serif" font-size="15" font-weight="700">上传 Release</text>
  <rect x="1140" y="658" width="74" height="24" rx="12" fill="#F3E8FF"/>
  <text x="1164" y="674" fill="#7C3AED" font-family="Arial, 'PingFang SC', sans-serif" font-size="11" font-weight="700">部署</text>
  <text x="980" y="708" fill="#64748B" font-family="Arial, 'PingFang SC', sans-serif" font-size="12">整理产物后上传 GitHub Release，供自动更新与下载页使用。</text>
  <text x="980" y="734" fill="#64748B" font-family="Arial, 'PingFang SC', sans-serif" font-size="12">命令数：5</text>
  <rect x="980" y="744" width="124" height="28" rx="10" fill="#F3F4F6"/>
  <text x="1006" y="762" fill="#334155" font-family="Arial, 'PingFang SC', sans-serif" font-size="12" font-weight="700">执行到本地终端</text>

  <defs>
    <linearGradient id="selectedCard" x1="72" y1="362" x2="352" y2="482" gradientUnits="userSpaceOnUse">
      <stop stop-color="#F8FBFF"/>
      <stop offset="1" stop-color="#EEF5FF"/>
    </linearGradient>
  </defs>
</svg>
